<svg width="304" height="73" viewBox="0 0 304 73" fill="none" xmlns="http://www.w3.org/2000/svg">
<path d="M11.726 1.3H26.775L38.289 72H27.179L25.159 57.961V58.163H12.534L10.514 72H0.212L11.726 1.3ZM23.846 48.568L18.897 13.622H18.695L13.847 48.568H23.846ZM43.6791 1.3H60.4451C66.1684 1.3 70.3431 2.64666 72.9691 5.34C75.5951 7.966 76.9081 12.0397 76.9081 17.561V20.389C76.9081 24.025 76.3021 26.9877 75.0901 29.277C73.9454 31.5663 72.1611 33.216 69.7371 34.226V34.428C75.2584 36.3133 78.0191 41.2287 78.0191 49.174V55.234C78.0191 60.688 76.5714 64.8627 73.6761 67.758C70.8481 70.586 66.6734 72 61.1521 72H43.6791V1.3ZM59.1321 30.085C61.3541 30.085 63.0038 29.5127 64.0811 28.368C65.2258 27.2233 65.7981 25.3043 65.7981 22.611V18.672C65.7981 16.1133 65.3268 14.2617 64.3841 13.117C63.5088 11.9723 62.0948 11.4 60.1421 11.4H54.7891V30.085H59.1321ZM61.1521 61.9C63.1048 61.9 64.5524 61.395 65.4951 60.385C66.4378 59.3077 66.9091 57.4897 66.9091 54.931V48.77C66.9091 45.538 66.3368 43.316 65.1921 42.104C64.1148 40.8247 62.2968 40.185 59.7381 40.185H54.7891V61.9H61.1521ZM100.572 73.01C95.1181 73.01 90.9434 71.4613 88.0481 68.364C85.1527 65.2667 83.7051 60.89 83.7051 55.234V18.066C83.7051 12.41 85.1527 8.03333 88.0481 4.936C90.9434 1.83866 95.1181 0.289996 100.572 0.289996C106.026 0.289996 110.201 1.83866 113.096 4.936C115.991 8.03333 117.439 12.41 117.439 18.066V55.234C117.439 60.89 115.991 65.2667 113.096 68.364C110.201 71.4613 106.026 73.01 100.572 73.01ZM100.572 62.91C104.41 62.91 106.329 60.587 106.329 55.941V17.359C106.329 12.713 104.41 10.39 100.572 10.39C96.7341 10.39 94.8151 12.713 94.8151 17.359V55.941C94.8151 60.587 96.7341 62.91 100.572 62.91ZM141.113 73.01C135.726 73.01 131.619 71.495 128.791 68.465C125.963 65.3677 124.549 60.9573 124.549 55.234V1.3H135.659V56.042C135.659 58.466 136.13 60.2167 137.073 61.294C138.083 62.3713 139.497 62.91 141.315 62.91C143.133 62.91 144.513 62.3713 145.456 61.294C146.466 60.2167 146.971 58.466 146.971 56.042V1.3H157.677V55.234C157.677 60.9573 156.263 65.3677 153.435 68.465C150.607 71.495 146.499 73.01 141.113 73.01ZM174.275 11.4H162.66V1.3H197V11.4H185.385V72H174.275V11.4ZM218.555 1.3H234.412L241.482 51.901H241.684L248.754 1.3H264.611V72H254.107V18.47H253.905L245.825 72H236.533L228.453 18.47H228.251V72H218.555V1.3ZM272.902 1.3H303.202V11.4H284.012V30.085H299.263V40.185H284.012V61.9H303.202V72H272.902V1.3Z" fill="white"/>
</svg>
