<svg width="127" height="13" viewBox="0 0 127 13" fill="none" xmlns="http://www.w3.org/2000/svg">
<path d="M0.12 12V0.48H1.856L5.84 8.64L9.824 0.48H11.56V12H9.76V4.616L6.224 12H5.456L1.928 4.616V12H0.12ZM18.6795 12.24C17.5275 12.24 16.5408 11.9893 15.7195 11.488C14.8982 10.9813 14.2662 10.2773 13.8235 9.376C13.3862 8.47467 13.1675 7.42933 13.1675 6.24C13.1675 5.05067 13.3862 4.00533 13.8235 3.104C14.2662 2.20267 14.8982 1.50133 15.7195 0.999999C16.5408 0.493333 17.5275 0.24 18.6795 0.24C19.8315 0.24 20.8182 0.493333 21.6395 0.999999C22.4662 1.50133 23.0982 2.20267 23.5355 3.104C23.9782 4.00533 24.1995 5.05067 24.1995 6.24C24.1995 7.42933 23.9782 8.47467 23.5355 9.376C23.0982 10.2773 22.4662 10.9813 21.6395 11.488C20.8182 11.9893 19.8315 12.24 18.6795 12.24ZM18.6795 10.424C19.4528 10.4293 20.0955 10.2587 20.6075 9.912C21.1248 9.56533 21.5115 9.07733 21.7675 8.448C22.0288 7.81867 22.1595 7.08267 22.1595 6.24C22.1595 5.39733 22.0288 4.66667 21.7675 4.048C21.5115 3.424 21.1248 2.93867 20.6075 2.592C20.0955 2.24533 19.4528 2.06667 18.6795 2.056C17.9062 2.05067 17.2635 2.22133 16.7515 2.568C16.2395 2.91467 15.8528 3.40267 15.5915 4.032C15.3355 4.66133 15.2075 5.39733 15.2075 6.24C15.2075 7.08267 15.3355 7.816 15.5915 8.44C15.8475 9.05867 16.2315 9.54133 16.7435 9.888C17.2608 10.2347 17.9062 10.4133 18.6795 10.424ZM25.7919 12V0.48H30.5519C30.6639 0.48 30.8079 0.485333 30.9839 0.495999C31.1599 0.501333 31.3225 0.517333 31.4719 0.544C32.1385 0.645333 32.6879 0.866666 33.1199 1.208C33.5572 1.54933 33.8799 1.98133 34.0879 2.504C34.3012 3.02133 34.4079 3.59733 34.4079 4.232C34.4079 5.17067 34.1705 5.97867 33.6959 6.656C33.2212 7.328 32.4932 7.744 31.5119 7.904L30.6879 7.976H27.7199V12H25.7919ZM32.4079 12L30.1359 7.312L32.0959 6.88L34.5919 12H32.4079ZM27.7199 6.176H30.4719C30.5785 6.176 30.6985 6.17067 30.8319 6.16C30.9652 6.14933 31.0879 6.128 31.1999 6.096C31.5199 6.016 31.7705 5.87467 31.9519 5.672C32.1385 5.46933 32.2692 5.24 32.3439 4.984C32.4239 4.728 32.4639 4.47733 32.4639 4.232C32.4639 3.98667 32.4239 3.736 32.3439 3.48C32.2692 3.21867 32.1385 2.98667 31.9519 2.784C31.7705 2.58133 31.5199 2.44 31.1999 2.36C31.0879 2.328 30.9652 2.30933 30.8319 2.304C30.6985 2.29333 30.5785 2.288 30.4719 2.288H27.7199V6.176ZM36.3544 12V0.48H43.7944V2.288H38.2824V5.128H42.8344V6.936H38.2824V10.192H43.7944V12H36.3544ZM48.1169 12L51.7489 0.48H54.5729L58.2049 12H56.2209L52.9249 1.664H53.3569L50.1009 12H48.1169ZM50.1409 9.504V7.704H56.1889V9.504H50.1409ZM59.6513 12V0.48H64.2193C64.9979 0.48 65.6353 0.637333 66.1313 0.952C66.6326 1.26133 67.0033 1.65867 67.2433 2.144C67.4886 2.62933 67.6113 3.13067 67.6113 3.648C67.6113 4.28267 67.4593 4.82133 67.1553 5.264C66.8566 5.70667 66.4486 6.00533 65.9313 6.16V5.76C66.6566 5.92533 67.2059 6.26933 67.5793 6.792C67.9579 7.31467 68.1473 7.90933 68.1473 8.576C68.1473 9.25867 68.0166 9.856 67.7552 10.368C67.4939 10.88 67.1046 11.28 66.5873 11.568C66.0753 11.856 65.4406 12 64.6833 12H59.6513ZM61.6033 10.184H64.4433C64.7793 10.184 65.0806 10.1173 65.3473 9.984C65.6139 9.84533 65.8219 9.65333 65.9713 9.408C66.1259 9.15733 66.2033 8.86133 66.2033 8.52C66.2033 8.21067 66.1366 7.93333 66.0033 7.688C65.8699 7.44267 65.6753 7.248 65.4193 7.104C65.1633 6.95467 64.8566 6.88 64.4993 6.88H61.6033V10.184ZM61.6033 5.08H64.1953C64.4726 5.08 64.7206 5.02667 64.9393 4.92C65.1579 4.81333 65.3313 4.656 65.4593 4.448C65.5873 4.24 65.6513 3.984 65.6513 3.68C65.6513 3.28 65.5233 2.94667 65.2673 2.68C65.0113 2.41333 64.6539 2.28 64.1953 2.28H61.6033V5.08ZM74.617 12.24C73.465 12.24 72.4783 11.9893 71.657 11.488C70.8357 10.9813 70.2037 10.2773 69.761 9.376C69.3237 8.47467 69.105 7.42933 69.105 6.24C69.105 5.05067 69.3237 4.00533 69.761 3.104C70.2037 2.20267 70.8357 1.50133 71.657 0.999999C72.4783 0.493333 73.465 0.24 74.617 0.24C75.769 0.24 76.7557 0.493333 77.577 0.999999C78.4037 1.50133 79.0357 2.20267 79.473 3.104C79.9157 4.00533 80.137 5.05067 80.137 6.24C80.137 7.42933 79.9157 8.47467 79.473 9.376C79.0357 10.2773 78.4037 10.9813 77.577 11.488C76.7557 11.9893 75.769 12.24 74.617 12.24ZM74.617 10.424C75.3903 10.4293 76.033 10.2587 76.545 9.912C77.0623 9.56533 77.449 9.07733 77.705 8.448C77.9663 7.81867 78.097 7.08267 78.097 6.24C78.097 5.39733 77.9663 4.66667 77.705 4.048C77.449 3.424 77.0623 2.93867 76.545 2.592C76.033 2.24533 75.3903 2.06667 74.617 2.056C73.8437 2.05067 73.201 2.22133 72.689 2.568C72.177 2.91467 71.7903 3.40267 71.529 4.032C71.273 4.66133 71.145 5.39733 71.145 6.24C71.145 7.08267 71.273 7.816 71.529 8.44C71.785 9.05867 72.169 9.54133 72.681 9.888C73.1983 10.2347 73.8437 10.4133 74.617 10.424ZM86.3694 12.24C85.452 12.24 84.644 12.0533 83.9454 11.68C83.252 11.3067 82.708 10.7813 82.3134 10.104C81.924 9.42667 81.7294 8.632 81.7294 7.72V0.495999L83.6814 0.48V7.672C83.6814 8.104 83.7534 8.49067 83.8974 8.832C84.0467 9.17333 84.2467 9.464 84.4974 9.704C84.748 9.93867 85.036 10.1173 85.3614 10.24C85.6867 10.3627 86.0227 10.424 86.3694 10.424C86.7267 10.424 87.0654 10.3627 87.3854 10.24C87.7107 10.112 87.9987 9.93067 88.2494 9.696C88.5 9.456 88.6974 9.16533 88.8414 8.824C88.9854 8.48267 89.0574 8.09867 89.0574 7.672V0.48H91.0094V7.72C91.0094 8.632 90.812 9.42667 90.4174 10.104C90.028 10.7813 89.484 11.3067 88.7854 11.68C88.092 12.0533 87.2867 12.24 86.3694 12.24ZM96.013 12V2.288H92.285V0.48H101.669V2.288H97.941V12H96.013ZM105.667 12V0.48H107.403L111.387 8.64L115.371 0.48H117.107V12H115.307V4.616L111.771 12H111.003L107.475 4.616V12H105.667ZM119.354 12V0.48H126.794V2.288H121.282V5.128H125.834V6.936H121.282V10.192H126.794V12H119.354Z" fill="#D3E97A"/>
</svg>
